<svg width="43" height="35" viewBox="0 0 43 35" fill="none" xmlns="http://www.w3.org/2000/svg">
<path d="M2.95 0C2.16761 0 1.41727 0.312778 0.864035 0.869527C0.310803 1.42628 0 2.18139 0 2.96875C0 3.75611 0.310803 4.51122 0.864035 5.06797C1.41727 5.62472 2.16761 5.9375 2.95 5.9375H2.9736C3.75599 5.9375 4.50633 5.62472 5.05956 5.06797C5.6128 4.51122 5.9236 3.75611 5.9236 2.96875C5.9236 2.18139 5.6128 1.42628 5.05956 0.869527C4.50633 0.312778 3.75599 0 2.9736 0H2.95ZM12.3664 1.1875C11.897 1.1875 11.4468 1.37517 11.1148 1.70922C10.7829 2.04327 10.5964 2.49633 10.5964 2.96875C10.5964 3.44117 10.7829 3.89423 11.1148 4.22828C11.4468 4.56233 11.897 4.75 12.3664 4.75H40.6864C41.1558 4.75 41.606 4.56233 41.938 4.22828C42.2699 3.89423 42.4564 3.44117 42.4564 2.96875C42.4564 2.49633 42.2699 2.04327 41.938 1.70922C41.606 1.37517 41.1558 1.1875 40.6864 1.1875H12.3664ZM12.3664 29.6875C11.897 29.6875 11.4468 29.8752 11.1148 30.2092C10.7829 30.5433 10.5964 30.9963 10.5964 31.4688C10.5964 31.9412 10.7829 32.3942 11.1148 32.7283C11.4468 33.0623 11.897 33.25 12.3664 33.25H40.6864C41.1558 33.25 41.606 33.0623 41.938 32.7283C42.2699 32.3942 42.4564 31.9412 42.4564 31.4688C42.4564 30.9963 42.2699 30.5433 41.938 30.2092C41.606 29.8752 41.1558 29.6875 40.6864 29.6875H12.3664ZM10.5964 17.2188C10.5964 16.7463 10.7829 16.2933 11.1148 15.9592C11.4468 15.6252 11.897 15.4375 12.3664 15.4375H40.6864C41.1558 15.4375 41.606 15.6252 41.938 15.9592C42.2699 16.2933 42.4564 16.7463 42.4564 17.2188C42.4564 17.6912 42.2699 18.1442 41.938 18.4783C41.606 18.8123 41.1558 19 40.6864 19H12.3664C11.897 19 11.4468 18.8123 11.1148 18.4783C10.7829 18.1442 10.5964 17.6912 10.5964 17.2188ZM0 17.2188C0 15.58 1.3216 14.25 2.95 14.25H2.9736C3.75599 14.25 4.50633 14.5628 5.05956 15.1195C5.6128 15.6763 5.9236 16.4314 5.9236 17.2188C5.9236 18.0061 5.6128 18.7612 5.05956 19.318C4.50633 19.8747 3.75599 20.1875 2.9736 20.1875H2.95C1.3216 20.1875 0 18.8575 0 17.2188ZM2.95 28.5C2.16761 28.5 1.41727 28.8128 0.864035 29.3695C0.310803 29.9263 0 30.6814 0 31.4688C0 32.2561 0.310803 33.0112 0.864035 33.568C1.41727 34.1247 2.16761 34.4375 2.95 34.4375H2.9736C3.75599 34.4375 4.50633 34.1247 5.05956 33.568C5.6128 33.0112 5.9236 32.2561 5.9236 31.4688C5.9236 30.6814 5.6128 29.9263 5.05956 29.3695C4.50633 28.8128 3.75599 28.5 2.9736 28.5H2.95Z" fill="white"/>
</svg>
