<svg width="53" height="20" viewBox="0 0 53 20" fill="none" xmlns="http://www.w3.org/2000/svg">
<g clip-path="url(#clip0_46_438)">
<path d="M10 1.80187C12.6701 1.80187 12.9863 1.81203 14.0408 1.86008C15.0158 1.90461 15.5453 2.0675 15.8977 2.20445C16.3645 2.38586 16.6976 2.60258 17.0475 2.9525C17.3974 3.30242 17.6141 3.63555 17.7955 4.10227C17.9325 4.45469 18.0954 4.98422 18.1399 5.95914C18.188 7.01367 18.1981 7.32992 18.1981 10C18.1981 12.6701 18.188 12.9864 18.1399 14.0409C18.0954 15.0159 17.9325 15.5453 17.7955 15.8977C17.6141 16.3645 17.3974 16.6977 17.0475 17.0476C16.6976 17.3975 16.3645 17.6142 15.8977 17.7955C15.5453 17.9325 15.0158 18.0955 14.0408 18.1399C12.9865 18.188 12.6702 18.1982 10 18.1982C7.32977 18.1982 7.01344 18.188 5.95914 18.1399C4.98414 18.0954 4.45469 17.9325 4.10227 17.7955C3.63555 17.6142 3.30234 17.3975 2.95242 17.0476C2.6025 16.6976 2.38578 16.3645 2.20445 15.8977C2.0675 15.5454 1.90453 15.0159 1.86008 14.0409C1.81195 12.9864 1.8018 12.6702 1.8018 10C1.8018 7.32984 1.81195 7.01367 1.86008 5.95922C1.90461 4.98422 2.0675 4.45469 2.20445 4.10227C2.38578 3.63555 2.6025 3.30242 2.95242 2.9525C3.30242 2.6025 3.63555 2.38586 4.10227 2.20445C4.45461 2.0675 4.98414 1.90461 5.95914 1.86008C7.01359 1.81203 7.32984 1.80187 10 1.80187ZM10 0C7.28414 0 6.94359 0.0114844 5.87703 0.0601562C4.81258 0.10875 4.08562 0.277812 3.44961 0.525C2.79195 0.780547 2.2343 1.1225 1.67836 1.67844C1.12242 2.23438 0.780547 2.79203 0.525 3.44961C0.277734 4.0857 0.10875 4.81266 0.0601562 5.87703C0.0114844 6.94359 0 7.28414 0 10C0 12.7159 0.0114844 13.0564 0.0601562 14.123C0.10875 15.1874 0.277734 15.9144 0.525 16.5504C0.780469 17.208 1.12242 17.7657 1.67836 18.3216C2.2343 18.8776 2.79195 19.2195 3.44961 19.475C4.0857 19.7223 4.81258 19.8913 5.87695 19.9398C6.94359 19.9885 7.28414 20 10 20C12.7159 20 13.0564 19.9885 14.123 19.9398C15.1873 19.8913 15.9143 19.7223 16.5503 19.475C17.208 19.2195 17.7656 18.8776 18.3216 18.3216C18.8775 17.7657 19.2195 17.208 19.475 16.5504C19.7222 15.9143 19.8913 15.1874 19.9398 14.123C19.9885 13.0564 20 12.7159 20 10C20 7.28414 19.9885 6.94359 19.9398 5.87703C19.8913 4.81266 19.7222 4.0857 19.475 3.44969C19.2195 2.79203 18.8775 2.23438 18.3216 1.67844C17.7656 1.1225 17.208 0.780469 16.5504 0.525C15.9143 0.277812 15.1873 0.10875 14.123 0.0601562C13.0564 0.0114844 12.7159 0 10 0ZM10 4.86484C7.16391 4.86484 4.86484 7.16406 4.86484 10C4.86484 12.8359 7.16391 15.1352 10 15.1352C12.836 15.1352 15.1352 12.8361 15.1352 10C15.1352 7.16398 12.836 4.86484 10 4.86484ZM10 13.3334C8.15906 13.3334 6.66664 11.8409 6.66664 10C6.66664 8.15906 8.15906 6.66664 10 6.66664C11.8409 6.66664 13.3334 8.15906 13.3334 10C13.3334 11.8409 11.8409 13.3334 10 13.3334ZM16.538 4.66195C16.538 5.32477 16.0008 5.86195 15.338 5.86195C14.6752 5.86195 14.138 5.32477 14.138 4.66195C14.138 3.99914 14.6752 3.46195 15.338 3.46195C16.0007 3.46195 16.538 3.99922 16.538 4.66195Z" fill="#0A0A08"/>
</g>
<g clip-path="url(#clip1_46_438)">
<path fill-rule="evenodd" clip-rule="evenodd" d="M36.008 20C35.6129 20.0002 35.2217 19.9225 34.8567 19.7714C34.4916 19.6203 34.16 19.3988 33.8806 19.1194C33.6012 18.84 33.3797 18.5084 33.2286 18.1433C33.0775 17.7783 32.9998 17.3871 33 16.992V3.00801C32.9998 2.61294 33.0775 2.2217 33.2286 1.85667C33.3797 1.49163 33.6012 1.15996 33.8806 0.8806C34.16 0.601242 34.4916 0.379681 34.8567 0.228582C35.2217 0.0774829 35.6129 -0.000191104 36.008 3.53077e-07H49.992C50.3871 -0.000191104 50.7783 0.0774829 51.1433 0.228582C51.5084 0.379681 51.84 0.601242 52.1194 0.8806C52.3988 1.15996 52.6203 1.49163 52.7714 1.85667C52.9225 2.2217 53.0002 2.61294 53 3.00801V16.992C53.0002 17.3871 52.9225 17.7783 52.7714 18.1433C52.6203 18.5084 52.3988 18.84 52.1194 19.1194C51.84 19.3988 51.5084 19.6203 51.1433 19.7714C50.7783 19.9225 50.3871 20.0002 49.992 20H36.008ZM48.2294 11.5513H46.1173V18.5433H50.0066C50.2105 18.5433 50.4124 18.5032 50.6008 18.4251C50.7892 18.3471 50.9604 18.2327 51.1046 18.0885C51.2487 17.9443 51.3631 17.7732 51.4412 17.5848C51.5192 17.3964 51.5594 17.1944 51.5594 16.9905V3.00656C51.5594 2.59473 51.3958 2.19976 51.1046 1.90856C50.8133 1.61735 50.4184 1.45375 50.0066 1.45375H36.0226C35.6107 1.45375 35.2158 1.61735 34.9246 1.90856C34.6334 2.19976 34.4698 2.59473 34.4698 3.00656V16.9905C34.4698 17.4024 34.6334 17.7973 34.9246 18.0885C35.2158 18.3797 35.6107 18.5433 36.0226 18.5433H43.7866V11.5513H41.4559V9.22069H43.7866V7.96941C43.7866 5.59505 44.9417 4.56082 46.9039 4.56082C47.8288 4.56082 48.3256 4.62782 48.5645 4.66133H48.579V6.89002H47.236C46.5586 6.89002 46.2382 7.18136 46.142 7.76402C46.1186 7.91681 46.1074 8.07122 46.1085 8.22578V9.22069H48.5557L48.2236 11.5513H48.2294Z" fill="black"/>
</g>
<defs>
<clipPath id="clip0_46_438">
<rect width="20" height="20" fill="white"/>
</clipPath>
<clipPath id="clip1_46_438">
<rect width="20" height="20" fill="white" transform="translate(33)"/>
</clipPath>
</defs>
</svg>
